<svg xmlns="http://www.w3.org/2000/svg" width="686" height="686" viewBox="0 0 686 686" version="1.1"><path d="M 466.157 84.243 C 465.348 85.052, 465 92.374, 465 108.607 L 465 131.813 432.750 132.403 C 386.328 133.251, 375.268 134.420, 342 141.999 C 338.726 142.745, 316.922 150.106, 312.500 151.958 C 311.400 152.419, 308.700 153.570, 306.500 154.517 C 304.300 155.463, 300.925 156.896, 299 157.702 C 297.075 158.507, 294.825 159.571, 294 160.066 C 292.509 160.959, 286.693 163.759, 280 166.803 C 278.075 167.679, 276.275 168.645, 276 168.949 C 275.725 169.254, 274.155 170.177, 272.511 171.002 C 266.057 174.236, 247.531 186.345, 234.612 195.771 C 232.901 197.020, 229.700 199.274, 227.500 200.780 C 225.300 202.285, 219.732 206.213, 215.128 209.509 C 200.850 219.726, 198.956 221, 198.048 221 C 197.563 221, 197.017 221.394, 196.833 221.876 C 196.650 222.359, 191.775 225.827, 186 229.585 C 180.225 233.343, 175.350 236.773, 175.167 237.209 C 174.983 237.644, 174.401 238, 173.872 238 C 173.343 238, 169.575 240.250, 165.500 243 C 161.425 245.750, 157.802 248, 157.450 248 C 157.097 248, 155.614 248.847, 154.154 249.882 C 143.888 257.161, 107.588 274, 102.164 274 C 101.509 274, 100.191 274.395, 99.236 274.877 C 96.347 276.337, 90.490 278, 88.238 278 C 87.072 278, 85.871 278.400, 85.568 278.890 C 85.266 279.379, 83.552 280.012, 81.759 280.296 C 79.967 280.581, 76.700 281.336, 74.500 281.973 C 66.438 284.310, 62.004 285.210, 43.500 288.264 L 35.500 289.585 35.241 343.984 C 35.079 378.192, 35.343 398.743, 35.954 399.354 C 36.488 399.888, 39.529 400.737, 42.712 401.242 C 56.362 403.405, 68.185 406.048, 82 410.023 C 86.125 411.210, 90.850 412.559, 92.500 413.022 C 97.038 414.296, 102.877 416.544, 103.648 417.315 C 104.025 417.692, 105.164 418, 106.180 418 C 107.196 418, 108.809 418.397, 109.764 418.883 C 110.719 419.369, 112.625 420.209, 114 420.750 C 115.375 421.290, 117.625 422.184, 119 422.735 C 122.894 424.297, 146.322 436.128, 148 437.381 C 148.825 437.996, 150.512 439.063, 151.750 439.750 C 156.400 442.333, 158.429 443.522, 159.449 444.262 C 164.700 448.069, 180.234 458, 180.937 458 C 181.430 458, 181.983 458.360, 182.167 458.800 C 182.350 459.240, 189.025 464.037, 197 469.460 C 204.975 474.883, 215.700 482.286, 220.833 485.910 C 225.966 489.535, 231.366 493.260, 232.833 494.189 C 234.300 495.117, 236.020 496.333, 236.655 496.890 C 237.291 497.446, 240.216 499.348, 243.155 501.115 C 246.095 502.882, 249.400 505.093, 250.500 506.029 C 251.600 506.964, 254.525 508.935, 257 510.408 C 259.475 511.881, 262.175 513.506, 263 514.019 C 271.837 519.518, 293.306 530.674, 299.500 532.986 C 300.600 533.397, 302.625 534.196, 304 534.763 C 313.225 538.566, 317.483 540.135, 325 542.503 C 329.675 543.975, 334.534 545.589, 335.797 546.090 C 337.060 546.590, 339.171 547, 340.488 547 C 341.805 547, 343.160 547.450, 343.500 548 C 343.840 548.550, 345.420 549, 347.012 549 C 348.604 549, 350.940 549.401, 352.203 549.892 C 355.632 551.223, 371.164 553.814, 382.500 554.946 C 388 555.496, 403.750 556.206, 417.500 556.526 C 431.250 556.845, 446.550 557.279, 451.500 557.490 L 460.500 557.873 461.068 578.687 C 461.573 597.174, 462.481 604, 464.434 604 C 464.911 604, 473.444 599.460, 483.872 593.658 C 488.476 591.096, 492.639 589, 493.122 589 C 493.605 589, 494 588.550, 494 588 C 494 587.450, 494.430 587, 494.956 587 C 495.482 587, 498.069 585.732, 500.706 584.183 C 503.343 582.633, 508.650 579.646, 512.500 577.544 C 516.350 575.442, 519.725 573.447, 520 573.111 C 520.275 572.775, 522.300 571.557, 524.500 570.404 C 530.005 567.519, 535.113 564.585, 540 561.500 C 544.140 558.887, 548.035 556.663, 555.500 552.650 C 557.700 551.468, 559.725 550.274, 560 549.998 C 560.275 549.723, 561.838 548.823, 563.474 547.998 C 565.109 547.174, 571.113 543.688, 576.814 540.250 C 582.516 536.813, 587.374 534, 587.609 534 C 587.844 534, 590.999 532.200, 594.620 530 C 598.242 527.800, 601.392 526, 601.622 526 C 601.852 526, 603.860 524.851, 606.085 523.446 C 609.894 521.042, 611.448 520.135, 620.750 514.883 C 622.813 513.719, 625.625 511.983, 627 511.026 C 628.375 510.068, 629.966 509.109, 630.535 508.893 C 633.519 507.760, 645 499.405, 645 498.366 C 645 496.820, 637.537 490.405, 633.830 488.764 C 632.274 488.075, 631 487.172, 631 486.756 C 631 486.340, 630.325 486, 629.500 486 C 628.675 486, 628 485.662, 628 485.248 C 628 484.835, 625.862 483.400, 623.250 482.059 C 620.638 480.719, 617.825 479.078, 617 478.413 C 615.481 477.187, 611.960 475.142, 602 469.700 C 598.975 468.047, 595.375 465.924, 594 464.981 C 592.625 464.039, 588.350 461.564, 584.500 459.480 C 580.650 457.397, 576.375 454.932, 575 454.003 C 573.625 453.074, 571.038 451.684, 569.250 450.913 C 567.462 450.142, 566 449.224, 566 448.873 C 566 448.521, 565.212 447.969, 564.250 447.646 C 563.288 447.322, 561.617 446.483, 560.538 445.779 C 557.101 443.539, 551.703 440.411, 544.500 436.487 C 540.650 434.389, 533.536 430.271, 528.692 427.336 C 523.848 424.401, 519.731 422, 519.544 422 C 519.357 422, 516.242 420.200, 512.620 418 C 508.999 415.800, 505.794 414, 505.498 414 C 505.202 414, 503.140 412.851, 500.915 411.446 C 498.690 410.042, 495.324 408.017, 493.435 406.946 C 491.546 405.876, 488.313 404.024, 486.250 402.831 C 484.188 401.638, 480.700 399.704, 478.500 398.534 C 476.300 397.363, 472.925 395.416, 471 394.206 C 466.779 391.554, 463.503 391.381, 462.397 393.750 C 461.948 394.712, 461.443 406.689, 461.276 420.365 L 460.972 445.230 432.236 445.100 C 401.078 444.959, 381.921 443.750, 372.500 441.330 C 369.200 440.483, 365.257 439.560, 363.738 439.279 C 362.219 438.999, 360.729 438.371, 360.429 437.885 C 360.128 437.398, 359.002 437, 357.927 437 C 356.852 437, 355.191 436.603, 354.236 436.117 C 353.281 435.631, 351.375 434.777, 350 434.219 C 334.138 427.780, 325.292 423.037, 311.147 413.383 C 306.003 409.872, 301.503 406.999, 301.147 406.999 C 300.791 406.998, 299.304 405.986, 297.842 404.749 C 296.380 403.512, 291.264 399.800, 286.472 396.500 C 281.680 393.200, 276.576 389.565, 275.130 388.422 C 273.683 387.279, 265.300 381.469, 256.500 375.510 C 225.831 354.743, 216.488 348.197, 214.707 346.229 C 212.962 344.301, 213.015 344.185, 216.707 341.890 C 218.793 340.593, 220.929 339.344, 221.454 339.114 C 221.979 338.885, 222.879 338.322, 223.454 337.864 C 224.029 337.405, 233.950 330.688, 245.500 322.937 C 271.819 305.274, 287.348 294.672, 292.500 290.849 C 299.865 285.385, 321.969 270.930, 328.269 267.459 C 344.501 258.517, 355.959 253.545, 375.500 246.965 C 378.480 245.961, 390.149 245.475, 421.260 245.059 C 444.228 244.752, 463.466 244.650, 464.010 244.833 C 464.600 245.032, 465.047 251.494, 465.117 260.833 C 465.182 269.450, 465.520 281, 465.867 286.500 C 466.461 295.884, 466.639 296.520, 468.748 296.819 C 469.985 296.995, 472.235 296.269, 473.748 295.205 C 475.262 294.142, 479.650 291.584, 483.500 289.521 C 487.350 287.458, 490.725 285.485, 491 285.135 C 491.275 284.786, 493.300 283.545, 495.500 282.378 C 502.691 278.563, 516.445 270.794, 519 269.105 C 520.375 268.195, 523.856 266.337, 526.734 264.976 C 529.613 263.614, 531.976 262.163, 531.984 261.750 C 531.993 261.337, 532.459 261, 533.020 261 C 533.581 261, 535.943 259.798, 538.270 258.329 C 540.596 256.860, 544.975 254.314, 548 252.671 C 551.025 251.027, 555.381 248.404, 557.680 246.841 C 559.979 245.279, 562.109 244, 562.413 244 C 562.716 244, 565.785 242.276, 569.232 240.168 C 575.088 236.587, 577.438 235.233, 589.750 228.341 C 594.369 225.755, 599.543 222.739, 603.538 220.304 C 604.617 219.646, 607.750 217.901, 610.500 216.427 C 613.250 214.953, 616.694 212.904, 618.154 211.874 C 619.614 210.843, 621.053 210, 621.351 210 C 622.033 210, 634.323 202.870, 635 202.082 C 635.275 201.762, 637.525 200.409, 640 199.075 C 642.475 197.741, 644.725 196.345, 645 195.974 C 645.275 195.603, 646.513 194.766, 647.750 194.115 C 648.987 193.463, 649.994 192.158, 649.988 191.215 C 649.976 189.569, 644.114 185, 642.014 185 C 641.456 185, 641 184.624, 641 184.164 C 641 183.703, 638.638 182.088, 635.750 180.573 C 632.862 179.058, 626.450 175.369, 621.500 172.375 C 616.550 169.381, 610.665 166.060, 608.422 164.995 C 606.179 163.930, 603.251 162.258, 601.915 161.279 C 600.579 160.301, 598.415 158.895, 597.106 158.156 C 595.797 157.417, 593.100 155.878, 591.113 154.737 C 589.126 153.596, 584.575 151.006, 581 148.982 C 577.425 146.958, 571.575 143.604, 568 141.528 C 564.425 139.453, 560.150 136.974, 558.500 136.019 C 556.850 135.064, 553.475 133.090, 551 131.632 C 548.525 130.174, 544.025 127.621, 541 125.959 C 537.975 124.297, 533.475 121.637, 531 120.047 C 528.525 118.458, 525.938 117.122, 525.250 117.079 C 524.563 117.035, 524 116.550, 524 116 C 524 115.450, 523.563 115, 523.029 115 C 522.495 115, 518.557 112.917, 514.279 110.371 C 502.239 103.207, 493.857 98.403, 488.500 95.596 C 486.300 94.443, 484.275 93.240, 484 92.921 C 483.725 92.603, 481.025 91.046, 478 89.462 C 474.975 87.877, 471.333 85.795, 469.907 84.834 C 467.944 83.512, 467.032 83.368, 466.157 84.243" stroke="none" fill="#acd2ff" fill-rule="evenodd"/></svg>